<svg width="206" height="45" viewBox="0 0 206 45" fill="none" xmlns="http://www.w3.org/2000/svg">
<g clip-path="url(#clip0_219_7019)">
<path d="M82.4458 37.1026H76.0844V23.9844C76.1369 22.4221 75.6517 20.8865 74.7028 19.6117C74.2618 19.0295 73.6758 18.561 72.9976 18.2485C72.3194 17.9359 71.5703 17.7892 70.8177 17.8214C70.0495 17.7973 69.2865 17.9493 68.5928 18.2648C67.8991 18.5803 67.2951 19.0499 66.8314 19.6342C65.8286 20.8796 65.3039 22.415 65.3448 23.9844V37.1026H58.9869V12.5534H64.8787L65.3483 15.5351C65.9459 14.3924 66.9403 13.4821 68.1624 12.9592C69.4058 12.4167 70.7578 12.1377 72.1252 12.1413C75.8773 12.1413 78.4143 13.6655 79.7364 16.7137C81.7206 13.732 84.5888 12.2411 88.341 12.2411C91.9445 12.2411 94.664 13.2425 96.4995 15.2454C98.335 17.2482 99.2472 20.1226 99.2359 23.8685V37.0865H92.8711V23.8846C92.8711 22.1308 92.4714 20.6979 91.6719 19.5859C90.8724 18.4739 89.6563 17.9191 88.0234 17.9212C87.2505 17.8962 86.482 18.0426 85.7785 18.3488C85.0751 18.655 84.4558 19.1127 83.9695 19.6857C82.9308 20.8955 82.3849 22.4218 82.4322 23.9844L82.4458 37.1026Z" fill="#19191A" style="fill:#19191A;fill:color(display-p3 0.0980 0.0980 0.1020);fill-opacity:1;"/>
<path d="M125.877 15.9827L126.087 12.6049H132.188V37.1025H126.191L125.877 33.5251C125.114 34.9124 123.884 36.0147 122.384 36.6549C120.879 37.3849 119.224 37.7916 117.536 37.8463C113.611 37.8785 110.423 36.7601 107.972 34.4911C105.522 32.2221 104.297 29.0021 104.297 24.8312C104.297 20.7525 105.557 17.5884 108.077 15.3387C110.597 13.089 113.803 11.9791 117.695 12.0092C119.379 11.9986 121.042 12.3742 122.543 13.104C123.924 13.7346 125.083 14.7349 125.877 15.9827ZM118.266 17.4252C117.265 17.395 116.268 17.5552 115.333 17.8963C114.398 18.2374 113.544 18.7526 112.82 19.4119C111.379 20.7343 110.657 22.5396 110.655 24.828C110.652 27.1163 111.374 28.9302 112.82 30.2697C113.54 30.9357 114.393 31.4571 115.329 31.8028C116.264 32.1485 117.263 32.3115 118.266 32.2822C120.016 32.3341 121.727 31.7869 123.09 30.7398C124.326 29.8179 125.176 28.5061 125.489 27.04C125.783 25.6035 125.783 24.1264 125.489 22.6899C125.181 21.2151 124.33 19.8939 123.09 18.9644C121.725 17.9167 120.011 17.3706 118.259 17.4252H118.266Z" fill="#19191A" style="fill:#19191A;fill:color(display-p3 0.0980 0.0980 0.1020);fill-opacity:1;"/>
<path d="M137.549 2.31714H143.91V15.9344C145.89 13.4807 148.566 12.255 151.937 12.2572C155.485 12.2572 158.126 13.3091 159.863 15.4128C161.599 17.5165 162.467 20.4392 162.467 24.1808V37.1025H156.11V24.2226C156.11 22.0759 155.579 20.4778 154.518 19.4281C153.457 18.3784 152.041 17.8556 150.268 17.8599C149.406 17.8399 148.549 18.0029 147.76 18.337C146.971 18.6711 146.27 19.1681 145.708 19.7919C144.499 21.1099 143.857 22.8142 143.91 24.5639V37.0865H137.549V2.31714Z" fill="#19191A" style="fill:#19191A;fill:color(display-p3 0.0980 0.0980 0.1020);fill-opacity:1;"/>
<path d="M188.014 15.9827L188.223 12.6049H194.321V37.1025H188.328L188.014 33.5251C187.25 34.9118 186.02 36.0139 184.521 36.6549C183.015 37.3846 181.361 37.7913 179.673 37.8463C175.745 37.8785 172.556 36.7601 170.106 34.4911C167.655 32.2221 166.43 29.0021 166.43 24.8312C166.43 20.7525 167.69 17.5884 170.21 15.3387C172.731 13.089 175.937 11.9791 179.828 12.0092C181.513 11.9979 183.176 12.3735 184.676 13.104C186.058 13.7346 187.218 14.7348 188.014 15.9827ZM180.403 17.4252C179.401 17.395 178.404 17.555 177.468 17.8961C176.533 18.2372 175.678 18.7525 174.953 19.4119C173.51 20.7343 172.789 22.5396 172.791 24.828C172.794 27.1163 173.514 28.9302 174.953 30.2697C175.674 30.9358 176.528 31.4572 177.464 31.8029C178.4 32.1486 179.399 32.3116 180.403 32.2822C182.151 32.3348 183.862 31.7875 185.223 30.7398C186.461 29.8189 187.311 28.5066 187.622 27.04C187.916 25.6035 187.916 24.1264 187.622 22.6899C187.316 21.2146 186.465 19.8929 185.223 18.9644C183.862 17.9176 182.151 17.3715 180.403 17.4252Z" fill="#19191A" style="fill:#19191A;fill:color(display-p3 0.0980 0.0980 0.1020);fill-opacity:1;"/>
<path d="M199.693 2.36865H206V37.1025H199.693V2.36865Z" fill="#19191A" style="fill:#19191A;fill:color(display-p3 0.0980 0.0980 0.1020);fill-opacity:1;"/>
</g>
<g clip-path="url(#clip1_219_7019)">
<path d="M43.8134 19.2603H31.812L40.2982 11.1717C40.9357 10.564 41.2937 9.73991 41.2936 8.88062C41.2935 8.02133 40.9353 7.19727 40.2978 6.58972C39.6602 5.98217 38.7956 5.6409 37.894 5.64099C36.9925 5.64107 36.1279 5.9825 35.4905 6.59017L27.0052 14.6787V3.23974C27.0052 2.38051 26.6471 1.55647 26.0097 0.948898C25.3722 0.341329 24.5077 0 23.6062 0C22.7047 0 21.8402 0.341329 21.2027 0.948898C20.5653 1.55647 20.2072 2.38051 20.2072 3.23974V14.6787L11.721 6.59017C11.0818 5.99078 10.22 5.6564 9.3233 5.65988C8.42663 5.66336 7.56772 6.00442 6.93367 6.60875C6.29962 7.21309 5.9418 8.03175 5.93815 8.8864C5.93449 9.74106 6.28531 10.5625 6.91418 11.1717L15.4004 19.2603H3.39902C2.49755 19.2603 1.63299 19.6016 0.995548 20.2092C0.358108 20.8167 0 21.6408 0 22.5C0 23.3592 0.358108 24.1833 0.995548 24.7908C1.63299 25.3984 2.49755 25.7397 3.39902 25.7397H15.4004L6.91418 33.8283C6.28531 34.4375 5.93449 35.2589 5.93815 36.1136C5.9418 36.9683 6.29962 37.7869 6.93367 38.3912C7.56772 38.9956 8.42663 39.3366 9.3233 39.3401C10.22 39.3436 11.0818 39.0092 11.721 38.4098L20.2072 30.3213V41.7603C20.2072 42.6195 20.5653 43.4435 21.2027 44.0511C21.8402 44.6587 22.7047 45 23.6062 45C24.5077 45 25.3722 44.6587 26.0097 44.0511C26.6471 43.4435 27.0052 42.6195 27.0052 41.7603V30.3213L35.4905 38.4098C36.1279 39.0175 36.9925 39.3589 37.894 39.359C38.7956 39.3591 39.6602 39.0178 40.2978 38.4103C40.9353 37.8027 41.2935 36.9787 41.2936 36.1194C41.2937 35.2601 40.9357 34.436 40.2982 33.8283L31.812 25.7397H43.8134C44.7149 25.7397 45.5794 25.3984 46.2169 24.7908C46.8543 24.1833 47.2124 23.3592 47.2124 22.5C47.2124 21.6408 46.8543 20.8167 46.2169 20.2092C45.5794 19.6016 44.7149 19.2603 43.8134 19.2603Z" fill="#278960" style="fill:#278960;fill:color(display-p3 0.1522 0.5384 0.3762);fill-opacity:1;"/>
</g>
<defs>
<clipPath id="clip0_219_7019">
<rect width="147.016" height="35.5293" fill="white" style="fill:white;fill-opacity:1;" transform="translate(58.9835 2.31708)"/>
</clipPath>
<clipPath id="clip1_219_7019">
<rect width="47.2124" height="45" fill="white" style="fill:white;fill-opacity:1;"/>
</clipPath>
</defs>
</svg>
