<svg xmlns="http://www.w3.org/2000/svg" width="45" height="45" viewBox="0 0 45 45" fill="none">
  <g clip-path="url(#clip0_3_621)">
    <path d="M41.7603 19.2603H30.3213L38.4098 11.1717C39.0174 10.564 39.3586 9.73991 39.3586 8.88062C39.3585 8.02133 39.017 7.19727 38.4094 6.58972C37.8017 5.98217 36.9776 5.6409 36.1183 5.64099C35.259 5.64107 34.4349 5.9825 33.8274 6.59017L25.7397 14.6787V3.23974C25.7397 2.38051 25.3984 1.55647 24.7908 0.948898C24.1833 0.341329 23.3592 0 22.5 0C21.6408 0 20.8167 0.341329 20.2092 0.948898C19.6016 1.55647 19.2603 2.38051 19.2603 3.23974V14.6787L11.1717 6.59017C10.5625 5.99078 9.74106 5.6564 8.8864 5.65988C8.03175 5.66336 7.21309 6.00442 6.60875 6.60875C6.00442 7.21309 5.66336 8.03175 5.65988 8.8864C5.6564 9.74106 5.99078 10.5625 6.59017 11.1717L14.6787 19.2603H3.23974C2.38051 19.2603 1.55646 19.6016 0.948896 20.2092C0.341326 20.8167 0 21.6408 0 22.5C0 23.3592 0.341326 24.1833 0.948896 24.7908C1.55646 25.3984 2.38051 25.7397 3.23974 25.7397H14.6787L6.59017 33.8283C5.99078 34.4375 5.6564 35.2589 5.65988 36.1136C5.66336 36.9683 6.00442 37.7869 6.60875 38.3912C7.21309 38.9956 8.03175 39.3366 8.8864 39.3401C9.74106 39.3436 10.5625 39.0092 11.1717 38.4098L19.2603 30.3213V41.7603C19.2603 42.6195 19.6016 43.4435 20.2092 44.0511C20.8167 44.6587 21.6408 45 22.5 45C23.3592 45 24.1833 44.6587 24.7908 44.0511C25.3984 43.4435 25.7397 42.6195 25.7397 41.7603V30.3213L33.8274 38.4098C34.4349 39.0175 35.259 39.3589 36.1183 39.359C36.9776 39.3591 37.8017 39.0178 38.4094 38.4103C39.017 37.8027 39.3585 36.9787 39.3586 36.1194C39.3586 35.2601 39.0174 34.436 38.4098 33.8283L30.3213 25.7397H41.7603C42.6195 25.7397 43.4435 25.3984 44.0511 24.7908C44.6587 24.1833 45 23.3592 45 22.5C45 21.6408 44.6587 20.8167 44.0511 20.2092C43.4435 19.6016 42.6195 19.2603 41.7603 19.2603Z" fill="#278960" style="fill:#278960;fill:color(display-p3 0.1529 0.5373 0.3765);fill-opacity:1;"/>
  </g>
  <defs>
    <clipPath id="clip0_3_621">
      <rect width="45" height="45" fill="white" style="fill:white;fill-opacity:1;"/>
    </clipPath>
  </defs>
</svg>